<svg width="236" height="180" viewBox="0 0 236 180" fill="none" xmlns="http://www.w3.org/2000/svg">
<path d="M236 170.864C236 173.143 225.203 175.228 207.353 176.837C204.107 177.126 200.628 177.401 196.939 177.66C193.752 177.881 190.411 178.09 186.917 178.287C183.531 178.473 180.016 178.646 176.372 178.805C164.861 179.313 152.136 179.678 138.618 179.86C135.337 179.907 132.013 179.942 128.645 179.967C125.136 179.991 121.588 180.002 117.999 180C52.8283 180 0 175.915 0 170.874C0 165.833 52.8283 161.747 117.999 161.747C146.057 161.747 171.823 162.507 192.074 163.768L194.289 163.908H194.301C219.812 165.577 236 168.089 236 170.864Z" fill="#EEEEEE"/>
<path d="M93.0117 85.8426C82.4036 85.8426 74.0433 81.6502 67.9309 73.2654C61.8185 64.8806 58.7623 54.7231 58.7623 42.7928C58.7623 30.7821 61.718 20.6452 67.6293 12.3822C73.5407 4.11915 81.8792 -0.00824243 92.6448 1.23575e-05C104.061 1.23575e-05 112.663 4.35338 118.45 13.0601C124.237 21.7669 127.131 31.8439 127.134 43.2912C127.134 54.656 124.138 64.5906 118.148 73.0951C112.158 81.5996 103.779 85.8488 93.0117 85.8426ZM93.3226 76.4105C100.301 76.4105 105.517 73.382 108.97 67.325C112.424 61.2681 114.15 53.6324 114.15 44.418C114.15 34.1614 112.383 25.7632 108.849 19.2234C105.315 12.6835 99.8951 9.41254 92.5888 9.41048C78.7017 9.41048 71.7582 20.3935 71.7582 42.3595C71.7582 65.0622 78.9442 76.4125 93.3164 76.4105H93.3226ZM96.8171 166.735H81.474L181.921 1.6809H196.975L96.8171 166.735ZM185.68 168.429C174.912 168.429 166.518 164.198 160.497 155.737C154.476 147.276 151.453 137.117 151.428 125.261C151.428 113.331 154.363 103.234 160.233 94.9714C166.102 86.7083 174.462 82.5809 185.31 82.5892C196.646 82.5892 205.187 86.9426 210.935 95.6493C216.683 104.356 219.557 114.432 219.559 125.877C219.559 137.168 216.584 147.084 210.633 155.625C204.683 164.167 196.363 168.435 185.674 168.429H185.68ZM185.86 158.755C192.806 158.755 197.994 155.778 201.424 149.824C204.855 143.871 206.57 136.266 206.57 127.01C206.57 117.105 204.834 108.797 201.362 102.088C197.89 95.3789 192.482 92.0192 185.136 92.0089C171.168 92.0089 164.184 102.992 164.184 124.958C164.18 147.491 171.403 158.757 185.854 158.755H185.86Z" fill="#3F3D56"/>
<path d="M93.0117 85.8426C82.4036 85.8426 74.0433 81.6502 67.9309 73.2654C61.8185 64.8806 58.7623 54.7231 58.7623 42.7928C58.7623 30.7821 61.718 20.6452 67.6293 12.3822C73.5407 4.11915 81.8792 -0.00824243 92.6448 1.23575e-05C104.061 1.23575e-05 112.663 4.35338 118.45 13.0601C124.237 21.7669 127.131 31.8439 127.134 43.2912C127.134 54.656 124.138 64.5906 118.148 73.0951C112.158 81.5996 103.779 85.8488 93.0117 85.8426ZM93.3226 76.4105C100.301 76.4105 105.517 73.382 108.97 67.325C112.424 61.2681 114.15 53.6324 114.15 44.418C114.15 34.1614 112.383 25.7632 108.849 19.2234C105.315 12.6835 99.8951 9.41254 92.5888 9.41048C78.7017 9.41048 71.7582 20.3935 71.7582 42.3595C71.7582 65.0622 78.9442 76.4125 93.3164 76.4105H93.3226ZM96.8171 166.735H81.474L181.921 1.6809H196.975L96.8171 166.735ZM185.68 168.429C174.912 168.429 166.518 164.198 160.497 155.737C154.476 147.276 151.453 137.117 151.428 125.261C151.428 113.331 154.363 103.234 160.233 94.9714C166.102 86.7083 174.462 82.5809 185.31 82.5892C196.646 82.5892 205.187 86.9426 210.935 95.6493C216.683 104.356 219.557 114.432 219.559 125.877C219.559 137.168 216.584 147.084 210.633 155.625C204.683 164.167 196.363 168.435 185.674 168.429H185.68ZM185.86 158.755C192.806 158.755 197.994 155.778 201.424 149.824C204.855 143.871 206.57 136.266 206.57 127.01C206.57 117.105 204.834 108.797 201.362 102.088C197.89 95.3789 192.482 92.0192 185.136 92.0089C171.168 92.0089 164.184 102.992 164.184 124.958C164.18 147.491 171.403 158.757 185.854 158.755H185.86Z" fill="#3F3D56"/>
<path opacity="0.15" d="M93.0117 85.8426C82.4036 85.8426 74.0433 81.6502 67.9309 73.2654C61.8185 64.8806 58.7623 54.7231 58.7623 42.7928C58.7623 30.7821 61.718 20.6452 67.6293 12.3822C73.5407 4.11915 81.8792 -0.00824243 92.6448 1.23575e-05C104.061 1.23575e-05 112.663 4.35338 118.45 13.0601C124.237 21.7669 127.131 31.8439 127.134 43.2912C127.134 54.656 124.138 64.5906 118.148 73.0951C112.158 81.5996 103.779 85.8488 93.0117 85.8426ZM93.3226 76.4105C100.301 76.4105 105.517 73.382 108.97 67.325C112.424 61.2681 114.15 53.6324 114.15 44.418C114.15 34.1614 112.383 25.7632 108.849 19.2234C105.315 12.6835 99.8951 9.41254 92.5888 9.41048C78.7017 9.41048 71.7582 20.3935 71.7582 42.3595C71.7582 65.0622 78.9442 76.4125 93.3164 76.4105H93.3226ZM96.8171 166.735H81.474L181.921 1.6809H196.975L96.8171 166.735ZM185.68 168.429C174.912 168.429 166.518 164.198 160.497 155.737C154.476 147.276 151.453 137.117 151.428 125.261C151.428 113.331 154.363 103.234 160.233 94.9714C166.102 86.7083 174.462 82.5809 185.31 82.5892C196.646 82.5892 205.187 86.9426 210.935 95.6493C216.683 104.356 219.557 114.432 219.559 125.877C219.559 137.168 216.584 147.084 210.633 155.625C204.683 164.167 196.363 168.435 185.674 168.429H185.68ZM185.86 158.755C192.806 158.755 197.994 155.778 201.424 149.824C204.855 143.871 206.57 136.266 206.57 127.01C206.57 117.105 204.834 108.797 201.362 102.088C197.89 95.3789 192.482 92.0192 185.136 92.0089C171.168 92.0089 164.184 102.992 164.184 124.958C164.18 147.491 171.403 158.757 185.854 158.755H185.86Z" fill="black"/>
<path d="M83.3824 85.8426C72.7743 85.8426 64.4141 81.6502 58.3017 73.2654C52.1893 64.8806 49.1331 54.7231 49.1331 42.7928C49.1331 30.7821 52.0887 20.6452 58.0001 12.3822C63.9114 4.11915 72.2499 -0.00824243 83.0155 1.23575e-05C94.432 1.23575e-05 103.034 4.35338 108.821 13.0601C114.608 21.7669 117.502 31.8439 117.504 43.2912C117.504 54.656 114.509 64.5906 108.519 73.0951C102.529 81.5996 94.1501 85.8488 83.3824 85.8426ZM83.6933 76.4105C90.6721 76.4105 95.8881 73.382 99.3412 67.325C102.794 61.2681 104.521 53.6324 104.521 44.418C104.521 34.1614 102.754 25.7632 99.22 19.2234C95.686 12.6835 90.2659 9.41254 82.9596 9.41048C69.0725 9.41048 62.1289 20.3935 62.1289 42.3595C62.1289 65.0622 69.315 76.4125 83.6871 76.4105H83.6933ZM87.1879 166.735H71.8447L172.292 1.6809H187.346L87.1879 166.735ZM176.051 168.429C165.283 168.429 156.889 164.198 150.868 155.737C144.846 147.276 141.823 137.117 141.798 125.261C141.798 113.331 144.733 103.234 150.603 94.9714C156.473 86.7083 164.832 82.5809 175.681 82.5892C187.017 82.5892 195.558 86.9426 201.306 95.6493C207.053 104.356 209.928 114.432 209.93 125.877C209.93 137.168 206.955 147.084 201.004 155.625C195.054 164.167 186.734 168.435 176.045 168.429H176.051ZM176.231 158.755C183.177 158.755 188.365 155.778 191.795 149.824C195.226 143.871 196.941 136.266 196.941 127.01C196.941 117.105 195.205 108.797 191.733 102.088C188.261 95.3789 182.85 92.0192 175.501 92.0089C161.533 92.0089 154.549 102.992 154.549 124.958C154.549 147.491 161.774 158.757 176.225 158.755H176.231Z" fill="#7161A9"/>
<path d="M90.0154 137.541C90.0212 136.791 89.8505 136.049 89.5169 135.376C89.1833 134.703 88.6961 134.118 88.0943 133.666C88.0197 130.828 85.9868 128.509 83.3726 128.15C83.1706 127.186 82.7173 126.292 82.0582 125.557C81.399 124.823 80.5573 124.274 79.6176 123.966V123.966C79.3889 123.894 79.1551 123.839 78.9182 123.802H78.8498L78.7286 123.786H78.626H78.5234H78.3897H78.3089H78.0882C75.4212 123.786 73.2017 125.817 72.7448 128.494C71.0196 128.098 69.4374 128.611 69.1545 129.698C69.0815 129.986 69.0977 130.289 69.2011 130.568C69.4933 131.41 70.4445 132.214 71.7345 132.614L71.9024 132.663C71.9863 132.688 72.0702 132.706 72.1541 132.725H72.2101C71.7358 133.732 71.6685 134.882 72.0221 135.937C72.3756 136.991 73.1229 137.871 74.1094 138.392C74.0705 138.413 74.0331 138.437 73.9975 138.463C73.8382 138.609 73.7111 138.786 73.6245 138.983C73.3128 139.528 73.0705 140.109 72.9033 140.714C72.779 141.23 72.7572 141.772 72.5925 142.283C72.3096 143.211 71.5822 144.025 71.4983 145.013C71.461 145.452 71.5325 145.969 71.2185 146.269C71.1404 146.336 71.0572 146.397 70.9698 146.452C70.7497 146.602 70.5634 146.796 70.4227 147.021C70.3311 147.208 70.2081 147.378 70.0591 147.523C69.7762 147.736 69.3099 147.715 69.17 148.043C69.0302 148.371 69.3907 148.758 69.3068 149.117C69.2384 149.408 68.9183 149.541 68.6851 149.736C68.4244 150.018 68.2422 150.362 68.1567 150.736C67.6923 150.825 67.2139 150.811 66.7556 150.695C66.2972 150.579 65.8703 150.363 65.5052 150.064C65.6304 150.383 65.722 150.714 65.7787 151.051C65.4088 150.658 64.7995 150.544 64.3488 150.339C63.7675 150.074 63.2486 149.69 62.8257 149.213L63.6401 149.101L60.0343 143.654L58.9712 143.437L59.9255 145.26C59.8474 145.298 59.7788 145.352 59.725 145.42C59.6711 145.487 59.6334 145.566 59.6146 145.65C59.5632 145.852 59.5506 146.062 59.5773 146.269C59.6278 146.758 59.7099 147.243 59.8229 147.721L60.0995 149.002C60.123 149.123 60.1531 149.241 60.1897 149.358C59.8292 149.345 59.4688 149.386 59.1204 149.479C58.4056 149.216 57.6614 149.04 56.904 148.956C56.7375 148.927 56.5664 148.935 56.4036 148.981C56.2188 149.066 56.0584 149.195 55.9373 149.358C55.3156 150.074 54.7639 150.847 54.2898 151.667C52.3533 155.022 49.767 157.95 47.3455 160.984C45.6732 161.662 43.9884 162.305 42.3005 162.943L38.6729 164.32C37.9487 164.596 37.1964 164.877 36.4255 164.828C36.0774 164.806 35.6546 164.754 35.4588 165.048C35.3634 165.193 35.2892 165.352 35.2381 165.518C35.1106 165.518 34.9832 165.549 34.8651 165.555H34.8433C34.6133 164.986 34.4143 164.376 33.9729 163.961C33.8841 163.975 33.8001 164.01 33.7284 164.064C33.6568 164.118 33.5998 164.189 33.5626 164.271C33.4756 164.432 33.4227 164.608 33.3233 164.757C33.1274 165.041 32.7886 165.181 32.5461 165.422C32.3037 165.664 32.1514 166.041 31.8903 166.276C31.5246 166.541 31.0961 166.706 30.6469 166.756C29.9739 166.914 29.3249 167.16 28.7165 167.487C28.4922 167.624 28.2522 167.734 28.0016 167.815C27.726 167.867 27.4439 167.877 27.1654 167.843L25.2444 167.703C25.0734 167.681 24.8999 167.688 24.7315 167.725C24.5336 167.797 24.3653 167.933 24.2528 168.11C24.1403 168.288 24.09 168.497 24.1098 168.706C24.1332 168.913 24.1991 169.114 24.3033 169.295C24.4076 169.476 24.548 169.634 24.7159 169.758C25.0494 170.002 25.4184 170.193 25.8101 170.325C27.4794 170.969 29.2004 171.471 30.9546 171.826V172.213C32.1706 172.823 33.5129 173.141 34.8744 173.141C34.9747 173.149 35.0754 173.131 35.1666 173.089C35.2924 172.995 35.3797 172.858 35.4122 172.705C35.8197 171.491 36.0776 170.233 36.1799 168.957C36.42 168.941 36.6551 168.882 36.8731 168.78C37.5352 168.601 38.1911 169.053 38.8719 169.127C39.7111 169.217 40.4914 168.731 41.284 168.431C41.399 168.387 41.5141 168.35 41.6291 168.313C41.403 168.604 41.136 168.862 40.8364 169.078C40.5069 169.313 40.137 169.486 39.8137 169.731C39.5451 169.975 39.2571 170.198 38.9527 170.396C38.738 170.496 38.5168 170.58 38.2906 170.65C37.9625 170.769 37.6496 170.926 37.358 171.117C37.0969 171.27 36.8755 171.482 36.7115 171.736C36.6289 171.855 36.5781 171.992 36.564 172.136C36.5499 172.279 36.5729 172.424 36.6309 172.556C36.6888 172.688 36.7798 172.804 36.8951 172.891C37.0104 172.978 37.1462 173.035 37.2897 173.055C37.5493 173.101 37.8143 173.108 38.0761 173.076C39.1143 172.999 40.1494 172.903 41.1846 172.81C41.6228 172.781 42.0582 172.719 42.487 172.625C42.7139 172.569 42.9377 172.495 43.1647 172.436C43.5518 172.334 43.9489 172.275 44.349 172.259C44.4651 172.25 44.5819 172.262 44.694 172.293C44.9365 172.371 45.1074 172.603 45.353 172.665C45.5124 172.68 45.6733 172.658 45.8224 172.6C46.5801 172.436 47.3534 172.354 48.1289 172.355C48.4677 172.337 48.8656 172.272 49.0241 171.959C49.2168 171.572 48.8935 171.139 48.7661 170.721C48.7011 170.455 48.6657 170.183 48.6604 169.91C48.6013 169.236 48.4068 168.58 48.0884 167.982C47.9192 167.703 47.7767 167.408 47.6626 167.103C49.148 166.54 50.5693 165.822 51.9025 164.961C52.6672 164.487 53.4568 163.977 54.3209 163.803C55.3281 163.602 56.3663 163.868 57.3579 164.153C59.7198 164.834 62.0432 165.64 64.3177 166.57C65.4057 167.013 66.4936 167.483 67.6065 167.808C67.9318 168.246 68.3254 168.628 68.7721 168.941C69.5182 169.421 70.429 169.56 71.3055 169.628C72.4897 169.736 73.6789 169.781 74.8678 169.762C75.7755 169.746 76.7112 169.684 77.5225 169.272C77.7207 169.171 77.9072 169.049 78.0789 168.907C78.7006 169.019 79.3378 168.688 79.8258 168.263C80.4717 167.716 80.9375 166.988 81.1625 166.174C81.4485 165.057 81.2278 163.754 81.9178 162.841C82.1012 162.596 82.3406 162.398 82.5209 162.151C82.7429 161.819 82.8519 161.425 82.8317 161.027L82.8628 160.981C83.019 160.621 83.1236 160.242 83.1736 159.854C83.2554 159.551 83.3593 159.254 83.4845 158.966C83.8349 158.102 84.14 157.221 84.3984 156.325C84.5781 155.732 84.7193 155.127 84.8211 154.515C84.8957 154.026 84.9393 153.534 84.9797 153.042C85.0295 152.271 85.18 151.511 85.4273 150.779C86.0408 149.033 86.3877 147.205 86.4562 145.356C86.4562 145.319 86.4562 145.285 86.4562 145.248C87.3586 145.149 88.1917 144.719 88.7925 144.041C89.3932 143.364 89.7185 142.487 89.7045 141.583C89.7053 141.038 89.591 140.5 89.3688 140.002C89.7977 139.252 90.0207 138.404 90.0154 137.541V137.541ZM72.437 158.808C72.4899 158.997 72.552 159.185 72.6142 159.374C72.3282 159.093 72.0454 158.802 71.7563 158.523C71.8713 158.557 71.9863 158.594 72.0982 158.634C72.2174 158.681 72.3319 158.74 72.4401 158.808H72.437ZM71.0444 157.879C69.3472 156.412 67.3827 155.273 65.645 153.856C66.5776 154.323 67.5101 154.865 68.4426 155.385C69.5285 156.004 70.6269 156.596 71.7376 157.161C71.5554 157.436 71.3235 157.676 71.0538 157.867L71.0444 157.879ZM71.7687 154.184L71.8495 154.1C71.8495 154.307 71.8495 154.502 71.8495 154.679C71.6972 154.629 71.5387 154.58 71.3926 154.524C71.5268 154.415 71.6535 154.297 71.7718 154.171L71.7687 154.184ZM56.8263 158.158C57.5252 157.371 58.1331 156.508 58.6386 155.586C59.31 156.759 60.4042 157.604 61.3367 158.585C59.8384 158.374 58.337 158.21 56.8294 158.145L56.8263 158.158Z" fill="#EEEEEE"/>
<path d="M59.2845 143.887L60.3546 144.104L63.9991 149.478L62.3893 149.694L59.2845 143.887Z" fill="#2F2E41"/>
<path d="M33.3027 165.699C33.5923 166.649 33.949 167.578 34.3703 168.478C35.5821 168.227 36.7741 167.889 37.9372 167.469C37.7121 167.121 37.4647 166.788 37.1965 166.471C36.9105 166.156 36.5687 165.895 36.188 165.702C35.8176 165.542 35.3601 165.662 34.9648 165.684C34.4108 165.704 33.8568 165.709 33.3027 165.699Z" fill="#FBBEBE"/>
<path d="M36.1673 167.136C35.5641 166.948 35.1941 166.341 34.9485 165.756C34.7029 165.171 34.5039 164.534 34.0375 164.104C33.9487 164.118 33.8648 164.153 33.7932 164.207C33.7216 164.261 33.6645 164.332 33.6271 164.413C33.5369 164.568 33.4841 164.744 33.3815 164.893C33.1887 165.171 32.8467 165.307 32.6011 165.546C32.3554 165.784 32.2031 166.146 31.9388 166.384C31.5722 166.647 31.1439 166.811 30.6951 166.861C30.0174 167.014 29.3629 167.255 28.7488 167.579C28.5215 167.71 28.2793 167.814 28.0274 167.888C27.7497 167.941 27.4655 167.95 27.1849 167.916L25.2478 167.777C25.0756 167.756 24.901 167.764 24.7317 167.802C24.5344 167.87 24.3658 168.002 24.2531 168.177C24.1403 168.352 24.0899 168.56 24.1099 168.767C24.1356 168.973 24.2041 169.172 24.3112 169.351C24.4182 169.529 24.5614 169.683 24.7317 169.804C25.0685 170.043 25.4395 170.231 25.8324 170.361C27.52 170.992 29.2565 171.486 31.0247 171.837V172.217C32.2536 172.823 33.6053 173.14 34.9765 173.146C35.0829 173.155 35.19 173.137 35.2874 173.093C35.4134 173.001 35.5017 172.867 35.5361 172.716C36.0009 171.364 36.272 169.953 36.3414 168.526C36.3771 168.165 36.3497 167.8 36.2606 167.449C36.1549 167.102 36.5155 167.248 36.1797 167.112" fill="#2F2E41"/>
<path d="M73.314 159.877C67.5727 160.224 61.9028 158.545 56.1522 158.365C55.4385 158.322 54.7221 158.368 54.0198 158.502C53.2876 158.697 52.5789 158.971 51.906 159.319C48.8256 160.747 45.6363 161.931 42.4501 163.114L38.7946 164.471C38.061 164.74 37.3056 165.016 36.5254 164.969C36.1772 164.948 35.7514 164.895 35.5524 165.186C34.9587 166.063 35.2416 167.354 35.6333 168.34C35.7607 168.649 35.9752 169.005 36.3171 169.043C36.559 169.026 36.7959 168.966 37.0165 168.866C37.6817 168.69 38.3469 169.136 39.0308 169.207C39.8794 169.297 40.6659 168.817 41.4647 168.522C42.7889 168.036 44.2375 168.051 45.6301 167.819C47.9676 167.432 50.1311 166.351 52.1578 165.118C52.9287 164.65 53.712 164.149 54.5948 163.978C55.6113 163.78 56.6589 164.04 57.6567 164.322C60.0355 164.993 62.3773 165.788 64.6724 166.704C65.8671 167.221 67.092 167.666 68.3404 168.036C71.0614 168.75 73.9398 168.583 76.5592 167.559C77.4917 167.197 78.474 166.558 78.5268 165.57C78.5579 165.007 78.1196 164.511 77.8274 164.022C77.6378 163.712 77.4513 163.402 77.2462 163.108C76.2577 161.67 75.0578 159.772 73.314 159.877Z" fill="#2F2E41"/>
<path opacity="0.1" d="M73.314 159.877C67.5727 160.224 61.9028 158.545 56.1522 158.365C55.4385 158.322 54.7221 158.368 54.0198 158.502C53.2876 158.697 52.5789 158.971 51.906 159.319C48.8256 160.747 45.6363 161.931 42.4501 163.114L38.7946 164.471C38.061 164.74 37.3056 165.016 36.5254 164.969C36.1772 164.948 35.7514 164.895 35.5524 165.186C34.9587 166.063 35.2416 167.354 35.6333 168.34C35.7607 168.649 35.9752 169.005 36.3171 169.043C36.559 169.026 36.7959 168.966 37.0165 168.866C37.6817 168.69 38.3469 169.136 39.0308 169.207C39.8794 169.297 40.6659 168.817 41.4647 168.522C42.7889 168.036 44.2375 168.051 45.6301 167.819C47.9676 167.432 50.1311 166.351 52.1578 165.118C52.9287 164.65 53.712 164.149 54.5948 163.978C55.6113 163.78 56.6589 164.04 57.6567 164.322C60.0355 164.993 62.3773 165.788 64.6724 166.704C65.8671 167.221 67.092 167.666 68.3404 168.036C71.0614 168.75 73.9398 168.583 76.5592 167.559C77.4917 167.197 78.474 166.558 78.5268 165.57C78.5579 165.007 78.1196 164.511 77.8274 164.022C77.6378 163.712 77.4513 163.402 77.2462 163.108C76.2577 161.67 75.0578 159.772 73.314 159.877Z" fill="black"/>
<path d="M44.3184 165.981C45.2185 166.285 46.1247 166.566 47.0372 166.824C47.5505 165.984 48.5086 165.401 48.7264 164.444C48.7387 164.402 48.7387 164.358 48.7264 164.317C48.7026 164.276 48.6667 164.243 48.6237 164.224C47.9679 163.863 47.2403 163.652 46.4928 163.604C45.9018 163.567 45.6343 164.18 45.3667 164.611C45.2734 164.785 44.5579 166.062 44.3184 165.981Z" fill="#FBBEBE"/>
<path d="M45.5563 165.371C45.2879 165.326 45.0318 165.227 44.8043 165.078C44.5769 164.929 44.3831 164.734 44.2354 164.507C44.1079 164.287 43.9743 163.99 43.7194 164.005C43.4645 164.021 43.3775 164.299 43.3247 164.532C43.1526 165.399 42.904 166.25 42.5818 167.074C42.2569 167.901 41.7068 168.62 40.9935 169.152C40.661 169.381 40.2911 169.555 39.9647 169.796C39.6927 170.038 39.4017 170.258 39.0944 170.453C38.878 170.552 38.6547 170.634 38.4262 170.701C38.0913 170.817 37.7711 170.972 37.472 171.162C37.2098 171.315 36.9873 171.527 36.8224 171.782C36.7428 171.911 36.6961 172.057 36.6864 172.208C36.6766 172.359 36.7041 172.511 36.7664 172.649C36.8334 172.761 36.9234 172.858 37.0305 172.933C37.1376 173.008 37.2594 173.06 37.388 173.085C37.65 173.129 37.9169 173.135 38.1806 173.104C39.2281 173.027 40.2724 172.934 41.3168 172.841C41.7589 172.814 42.1984 172.754 42.6316 172.661C42.8616 172.605 43.0853 172.531 43.3122 172.472C43.7039 172.373 44.105 172.315 44.5089 172.299C44.626 172.29 44.7438 172.302 44.857 172.333C45.0994 172.41 45.2704 172.643 45.519 172.698C45.6792 172.715 45.8411 172.694 45.9915 172.636C46.7559 172.475 47.5351 172.394 48.3164 172.395C48.6583 172.376 49.0624 172.311 49.2178 172.005C49.4136 171.624 49.0903 171.196 48.9598 170.788C48.8953 170.526 48.8589 170.258 48.851 169.988C48.7922 169.323 48.5964 168.677 48.276 168.09C48.0087 167.601 47.6544 167.062 47.8315 166.542C47.9268 166.379 47.9871 166.199 48.0087 166.012C47.9652 165.173 46.0288 165.482 45.5563 165.371Z" fill="#2F2E41"/>
<path d="M64.7027 150.697C63.6849 150.25 62.8694 149.443 62.4132 148.433C62.3199 148.217 62.239 147.991 62.1488 147.771C61.8461 147.044 61.3775 146.397 60.7802 145.882C60.7162 145.812 60.6378 145.756 60.5502 145.72C60.4627 145.683 60.3682 145.665 60.2732 145.668C60.1812 145.695 60.0982 145.747 60.0326 145.816C59.9671 145.886 59.9212 145.972 59.8999 146.065C59.8466 146.267 59.8328 146.477 59.8594 146.684C59.9126 147.164 59.9957 147.641 60.1083 148.111L60.3882 149.375C60.4236 149.569 60.482 149.758 60.5624 149.938C60.6821 150.15 60.8404 150.338 61.029 150.492C61.2841 150.728 61.5423 150.954 61.8036 151.174C61.9476 151.303 62.105 151.418 62.2733 151.514C62.5493 151.644 62.8443 151.73 63.1474 151.768C64.2889 151.979 65.4492 152.282 66.4104 153.007C66.4104 153.007 66.4104 152.161 66.3886 152.078C66.3769 151.833 66.2925 151.597 66.146 151.4C65.7851 151.013 65.163 150.898 64.7027 150.697Z" fill="#FBBEBE"/>
<path opacity="0.1" d="M64.7027 150.697C63.6849 150.25 62.8694 149.443 62.4132 148.433C62.3199 148.217 62.239 147.991 62.1488 147.771C61.8461 147.044 61.3775 146.397 60.7802 145.882C60.7162 145.812 60.6378 145.756 60.5502 145.72C60.4627 145.683 60.3682 145.665 60.2732 145.668C60.1812 145.695 60.0982 145.747 60.0326 145.816C59.9671 145.886 59.9212 145.972 59.8999 146.065C59.8466 146.267 59.8328 146.477 59.8594 146.684C59.9126 147.164 59.9957 147.641 60.1083 148.111L60.3882 149.375C60.4236 149.569 60.482 149.758 60.5624 149.938C60.6821 150.15 60.8404 150.338 61.029 150.492C61.2841 150.728 61.5423 150.954 61.8036 151.174C61.9476 151.303 62.105 151.418 62.2733 151.514C62.5493 151.644 62.8443 151.73 63.1474 151.768C64.2889 151.979 65.4492 152.282 66.4104 153.007C66.4104 153.007 66.4104 152.161 66.3886 152.078C66.3769 151.833 66.2925 151.597 66.146 151.4C65.7851 151.013 65.163 150.898 64.7027 150.697Z" fill="black"/>
<path d="M76.381 141.042C77.152 141.042 77.7769 140.415 77.7769 139.642C77.7769 138.87 77.152 138.243 76.381 138.243C75.6101 138.243 74.9852 138.87 74.9852 139.642C74.9852 140.415 75.6101 141.042 76.381 141.042Z" fill="#2F2E41"/>
<path d="M75.5165 138.8C75.1415 138.715 74.7482 138.771 74.4124 138.958C74.2511 139.1 74.1227 139.275 74.0361 139.472C73.722 140.006 73.4774 140.578 73.3083 141.174C73.1839 141.685 73.1622 142.217 72.9973 142.722C72.7112 143.65 71.9772 144.439 71.8933 145.408C71.8559 145.842 71.9275 146.352 71.6103 146.646C71.5314 146.712 71.4471 146.771 71.3583 146.823C71.1374 146.97 70.9499 147.162 70.8079 147.386C70.7129 147.587 70.581 147.769 70.4191 147.922C70.133 148.132 69.6633 148.11 69.5234 148.435C69.3834 148.76 69.7442 149.138 69.6602 149.491C69.5918 149.779 69.2684 149.912 69.0382 150.11C68.7761 150.386 68.5925 150.727 68.5064 151.097C68.0392 151.185 67.5585 151.171 67.0974 151.056C66.6362 150.941 66.2055 150.728 65.8348 150.432C66.2236 151.388 66.2329 152.444 66.2485 153.475C66.2933 153.804 66.205 154.138 66.0028 154.403C67.1162 154.428 68.1985 154.713 69.2839 154.97C69.7481 155.124 70.2504 155.124 70.7146 154.97C70.9627 154.837 71.1849 154.66 71.3708 154.45C71.9617 153.852 72.5806 153.211 72.7237 152.379C72.7615 151.91 72.7698 151.44 72.7485 150.97C72.8056 150.391 72.9256 149.819 73.1062 149.265C73.4185 148.115 73.6267 146.939 73.7282 145.752C73.7935 145.018 74.428 144.43 74.7639 143.774C75.3859 142.536 76.039 141.251 76.0888 139.865C76.1323 139.413 75.9768 138.859 75.5165 138.8Z" fill="#6A2DA4"/>
<path opacity="0.1" d="M75.5165 138.8C75.1415 138.715 74.7482 138.771 74.4124 138.958C74.2511 139.1 74.1227 139.275 74.0361 139.472C73.722 140.006 73.4774 140.578 73.3083 141.174C73.1839 141.685 73.1622 142.217 72.9973 142.722C72.7112 143.65 71.9772 144.439 71.8933 145.408C71.8559 145.842 71.9275 146.352 71.6103 146.646C71.5314 146.712 71.4471 146.771 71.3583 146.823C71.1374 146.97 70.9499 147.162 70.8079 147.386C70.7129 147.587 70.581 147.769 70.4191 147.922C70.133 148.132 69.6633 148.11 69.5234 148.435C69.3834 148.76 69.7442 149.138 69.6602 149.491C69.5918 149.779 69.2684 149.912 69.0382 150.11C68.7761 150.386 68.5925 150.727 68.5064 151.097C68.0392 151.185 67.5585 151.171 67.0974 151.056C66.6362 150.941 66.2055 150.728 65.8348 150.432C66.2236 151.388 66.2329 152.444 66.2485 153.475C66.2933 153.804 66.205 154.138 66.0028 154.403C67.1162 154.428 68.1985 154.713 69.2839 154.97C69.7481 155.124 70.2504 155.124 70.7146 154.97C70.9627 154.837 71.1849 154.66 71.3708 154.45C71.9617 153.852 72.5806 153.211 72.7237 152.379C72.7615 151.91 72.7698 151.44 72.7485 150.97C72.8056 150.391 72.9256 149.819 73.1062 149.265C73.4185 148.115 73.6267 146.939 73.7282 145.752C73.7935 145.018 74.428 144.43 74.7639 143.774C75.3859 142.536 76.039 141.251 76.0888 139.865C76.1323 139.413 75.9768 138.859 75.5165 138.8Z" fill="#6A2DA4"/>
<path d="M74.2266 161.074C73.0294 160.507 72.1556 159.451 71.1885 158.547C69.3414 156.819 67.0839 155.599 65.1435 153.98C63.8592 152.908 62.7087 151.66 61.2938 150.762C60.0495 149.972 58.6382 149.479 57.1705 149.323C57.0028 149.293 56.8307 149.302 56.6668 149.347C56.4814 149.43 56.3199 149.558 56.1972 149.719C55.5703 150.422 55.0132 151.185 54.5336 151.995C52.0739 156.15 48.5819 159.646 45.6868 163.514C45.594 163.605 45.5389 163.727 45.5326 163.857C45.5263 163.987 45.5691 164.114 45.6526 164.214L46.2404 165.362C46.57 166.003 47.0986 166.753 47.7951 166.626C48.1147 166.534 48.4009 166.352 48.6192 166.102L51.2623 163.585L54.033 160.947C55.6562 159.399 57.3073 157.819 58.3677 155.844C59.1949 157.271 60.6626 158.206 61.6701 159.516C62.0526 160.012 62.3635 160.56 62.7056 161.086C63.256 161.931 63.8779 162.724 64.4998 163.514L67.6809 167.555C68.0822 168.13 68.5797 168.633 69.1517 169.041C69.9043 169.515 70.8216 169.642 71.7078 169.719C72.9017 169.828 74.1007 169.871 75.2994 169.849C76.2136 169.834 77.1651 169.775 77.9736 169.369C78.7821 168.964 79.4693 168.131 79.4258 167.223C79.3763 166.748 79.2201 166.29 78.9687 165.883C77.8461 163.808 76.3597 162.074 74.2266 161.074Z" fill="#2F2E41"/>
<path d="M77.2317 141.681C77.824 141.681 78.3042 141.2 78.3042 140.607C78.3042 140.014 77.824 139.533 77.2317 139.533C76.6393 139.533 76.1591 140.014 76.1591 140.607C76.1591 141.2 76.6393 141.681 77.2317 141.681Z" fill="#E8E8F0"/>
<path d="M77.021 139.808C77.2634 140.288 77.3058 140.844 77.1392 141.355C76.9734 141.858 76.7413 142.337 76.449 142.779C76.1974 143.236 75.8961 143.663 75.5505 144.054C77.2075 144.135 78.8148 143.488 80.276 142.702C81.4542 142.083 82.6294 141.293 83.2573 140.114C83.0704 140.158 82.8763 140.163 82.6873 140.129C82.4983 140.094 82.3187 140.021 82.1599 139.913C81.8438 139.694 81.5601 139.431 81.3174 139.133L80.4874 138.204C80.2913 138.001 80.1192 137.775 79.9744 137.533C79.7927 137.203 79.7157 136.827 79.7537 136.452C79.4232 136.797 79.0539 137.102 78.6532 137.362C78.0594 137.749 77.4096 138.028 76.8096 138.409C76.5982 138.545 76.1288 138.765 76.25 139.028C76.3713 139.291 76.8531 139.511 77.021 139.808Z" fill="#FBBEBE"/>
<path opacity="0.1" d="M77.021 139.808C77.2634 140.288 77.3058 140.844 77.1392 141.355C76.9734 141.858 76.7413 142.337 76.449 142.779C76.1974 143.236 75.8961 143.663 75.5505 144.054C77.2075 144.135 78.8148 143.488 80.276 142.702C81.4542 142.083 82.6294 141.293 83.2573 140.114C83.0704 140.158 82.8763 140.163 82.6873 140.129C82.4983 140.094 82.3187 140.021 82.1599 139.913C81.8438 139.694 81.5601 139.431 81.3174 139.133L80.4874 138.204C80.2913 138.001 80.1192 137.775 79.9744 137.533C79.7927 137.203 79.7157 136.827 79.7537 136.452C79.4232 136.797 79.0539 137.102 78.6532 137.362C78.0594 137.749 77.4096 138.028 76.8096 138.409C76.5982 138.545 76.1288 138.765 76.25 139.028C76.3713 139.291 76.8531 139.511 77.021 139.808Z" fill="black"/>
<path d="M77.0415 139.969C76.8738 140.204 76.7837 140.486 76.7837 140.775C76.7837 141.064 76.8738 141.345 77.0415 141.581C77.0881 141.64 77.2655 142.008 77.3526 142.011C77.426 142.005 77.4941 141.971 77.5424 141.915C77.9182 141.525 78.2694 141.111 78.594 140.677C78.9219 140.238 79.396 139.929 79.9319 139.805C80.5821 139.703 81.2075 140.046 81.7769 140.374C82.0215 140.495 82.2346 140.671 82.3991 140.888C82.5191 141.103 82.5902 141.342 82.6076 141.587C82.771 143.063 82.8334 144.547 82.7943 146.031C82.8245 147.101 82.7537 148.171 82.5827 149.228C82.4769 149.773 82.3182 150.305 82.2436 150.856C82.1891 151.341 82.1672 151.829 82.1782 152.317V154.359C82.1645 154.733 82.1917 155.108 82.2591 155.476C82.3876 155.916 82.5381 156.349 82.7102 156.773C82.8617 157.278 82.9659 157.796 83.0214 158.32L83.3014 160.434C83.3916 161.103 83.457 161.83 83.0494 162.365C82.8689 162.61 82.6263 162.802 82.4271 163.043C81.7271 163.928 81.9604 165.212 81.6493 166.311C81.4191 167.117 80.9482 167.835 80.299 168.369C79.8043 168.787 79.1634 169.118 78.5224 168.988C77.6606 168.827 77.141 167.933 76.9046 167.088C76.6681 166.243 76.5934 165.321 76.0739 164.612C75.6569 164.027 75.0129 163.662 74.4311 163.244C73.8493 162.826 73.2768 162.291 73.1492 161.585C73.0932 161.276 73.1274 160.966 73.0963 160.657C73.0501 160.263 72.898 159.888 72.6561 159.572C72.4141 159.256 72.0912 159.011 71.7211 158.862C71.2793 158.692 70.7318 158.63 70.4766 158.243C71.11 157.847 71.5717 157.23 71.7709 156.513C71.964 155.807 72.0685 155.079 72.082 154.347L72.2314 151.89C72.2967 150.791 72.3278 149.702 72.8132 148.714C73.031 148.275 73.3017 147.86 73.5257 147.424C73.8258 146.812 74.0816 146.179 74.2911 145.53C74.6426 144.524 74.9973 143.515 75.3116 142.497C75.4373 142.004 75.6255 141.529 75.8716 141.083C76.161 140.619 76.5437 140.062 77.0415 139.969Z" fill="#E8E8F0"/>
<path d="M71.5436 155.933L72.1986 155.954L72.3389 154.973C72.3576 154.777 72.4037 154.584 72.4761 154.401C72.5849 154.207 72.7112 154.024 72.8535 153.853C73.4991 152.949 73.4523 151.748 73.6113 150.65C73.8234 149.186 74.4409 147.811 75.0522 146.462L76.3246 143.649C76.4379 143.417 76.5288 143.176 76.5959 142.928C76.6515 142.654 76.6777 142.375 76.6739 142.095C76.6739 141.662 76.8174 140.08 76.8267 139.644C76.8267 139.483 76.4712 139.573 76.3963 139.43C76.2373 139.121 76.019 139.963 75.7196 140.148C75.4374 140.362 75.2319 140.661 75.1333 140.999C74.8588 141.708 74.6904 142.454 74.4347 143.166C74.2103 143.895 73.8012 144.555 73.2465 145.082C72.9876 145.311 72.6851 145.49 72.4387 145.732C71.6465 146.508 71.5717 147.734 71.5436 148.827C71.5249 149.504 71.397 155.933 71.5436 155.933Z" fill="#6A2DA4"/>
<path d="M80.939 138.795C80.3177 139.043 79.9574 139.724 79.7804 140.386C79.6033 141.049 79.5287 141.748 79.1871 142.336C78.3919 143.717 76.3635 144.119 75.8013 145.611C75.6582 146.115 75.5819 146.636 75.5745 147.159C75.4751 148.227 75.121 149.261 75.0154 150.329C74.9606 151.16 74.9803 151.994 75.0744 152.821L75.7858 161.25C75.9237 162.492 75.8513 163.747 75.5714 164.965C76.3009 165.07 77.045 164.947 77.7023 164.615C78.3701 164.306 78.979 163.897 79.6188 163.544C80.7215 162.925 81.9392 162.507 82.9021 161.687C83.0768 161.551 83.227 161.387 83.3463 161.201C83.5008 160.846 83.6054 160.472 83.6569 160.089C83.7386 159.791 83.8425 159.499 83.9675 159.216C84.3243 158.367 84.6353 157.499 84.8994 156.616C85.0803 156.031 85.2224 155.434 85.3249 154.83C85.4026 154.35 85.443 153.864 85.4865 153.381C85.5362 152.622 85.6877 151.872 85.9369 151.153C86.553 149.436 86.9018 147.635 86.9712 145.813C86.9927 145.549 86.9749 145.284 86.9184 145.026C86.8111 144.714 86.6673 144.414 86.4898 144.135C86.1947 143.581 86.0176 142.971 85.7381 142.411C85.1168 141.142 84.0017 140.179 82.8369 139.371C82.2405 138.978 81.5851 138.551 80.939 138.795Z" fill="#6A2DA4"/>
<path d="M66.0986 152.549C65.5935 152.286 65.1363 151.94 64.7459 151.527C64.5686 151.319 64.4349 151.087 64.2421 150.882C63.7854 150.397 63.1927 150.06 62.5411 149.916C61.894 149.774 61.232 149.71 60.5696 149.727C60.1271 149.696 59.6828 149.75 59.2604 149.885C59.0483 149.954 58.8573 150.075 58.705 150.238C58.5528 150.4 58.4443 150.599 58.3897 150.814C58.2933 151.341 58.6385 151.852 59.0521 152.187C59.4367 152.5 59.8891 152.719 60.3737 152.828C60.7689 152.896 61.1675 152.943 61.5678 152.967C63.9187 153.212 66.0177 154.485 68.0763 155.647C69.8862 156.666 71.7312 157.619 73.6115 158.507C73.6861 157.946 73.7173 157.381 73.7048 156.815C73.7048 156.394 73.6737 155.749 73.2726 155.502C72.8061 155.21 72.0287 155.145 71.5125 154.972C70.3006 154.578 69.1172 154.102 67.9706 153.547C67.3207 153.234 66.6987 152.902 66.0986 152.549Z" fill="#FBBEBE"/>
<path d="M76.3585 139.317C78.6743 139.317 80.5516 137.441 80.5516 135.126C80.5516 132.811 78.6743 130.935 76.3585 130.935C74.0428 130.935 72.1655 132.811 72.1655 135.126C72.1655 137.441 74.0428 139.317 76.3585 139.317Z" fill="#FBBEBE"/>
<path d="M82.1671 143.544C81.834 144.01 81.5616 144.517 81.3563 145.052C80.8375 146.114 80.0267 147.024 79.6229 148.148C79.1942 149.315 79.2098 150.705 78.3803 151.625C78.2136 151.764 78.088 151.946 78.0169 152.151C78.0118 152.279 77.9973 152.406 77.9734 152.532C77.8554 152.866 77.3055 152.882 77.203 153.222C77.1751 153.321 77.203 153.43 77.1533 153.532C77.0695 153.752 76.7806 153.783 76.5849 153.916C76.1779 154.191 76.2742 154.829 75.9636 155.226C75.8373 155.373 75.6743 155.484 75.491 155.548C75.3077 155.612 75.1107 155.627 74.9198 155.591C74.539 155.511 74.1725 155.374 73.8326 155.185C73.7131 155.118 73.5808 155.077 73.4443 155.065C73.2821 155.068 73.1249 155.121 72.9939 155.216C72.2204 155.705 71.8569 156.678 71.8631 157.594C71.9177 158.511 72.1354 159.41 72.5061 160.25C72.5499 160.396 72.6228 160.531 72.7205 160.647C72.9752 160.916 73.4225 160.873 73.7642 160.721C74.0844 160.532 74.4252 160.381 74.78 160.269C75.4262 160.151 76.0599 160.597 76.7153 160.56C77.1949 160.487 77.6463 160.289 78.0231 159.984C78.6885 159.582 79.2843 159.074 79.7876 158.483C80.0733 158.108 80.2846 157.681 80.5362 157.281C80.8576 156.791 81.2104 156.321 81.5924 155.876L84.0061 152.931C84.2482 152.653 84.4655 152.353 84.6553 152.037C84.8729 151.608 85.0427 151.158 85.1616 150.693C85.4202 149.917 85.588 149.114 85.6618 148.3C85.6741 147.625 85.6148 146.952 85.4847 146.29C85.4037 145.632 85.229 144.989 84.9659 144.38C84.4285 143.296 83.1518 142.398 82.1671 143.544Z" fill="#6A2DA4"/>
<path d="M90.5643 138.076C90.5676 137.333 90.3934 136.599 90.0562 135.936C89.7189 135.273 89.2282 134.698 88.6244 134.261C88.6061 132.941 88.1176 131.671 87.2459 130.676C86.3742 129.681 85.1759 129.027 83.8648 128.83C83.6113 127.58 82.9227 126.459 81.9202 125.665C80.9178 124.87 79.6659 124.454 78.3851 124.488C77.1043 124.523 75.8767 125.006 74.9188 125.853C73.9609 126.7 73.334 127.856 73.1486 129.118C71.4076 128.728 69.8159 129.235 69.5268 130.303C69.2159 131.42 70.4594 132.726 72.2998 133.221C72.8765 133.383 73.4775 133.443 74.075 133.397C74.503 134.023 75.0576 134.553 75.7033 134.952C76.3489 135.352 77.0714 135.613 77.8243 135.718C78.0454 136.728 78.5452 137.656 79.2675 138.397C79.9898 139.139 80.9058 139.666 81.9124 139.917C82.1909 140.587 82.6232 141.183 83.1746 141.656C83.1746 141.786 83.1528 141.919 83.1528 142.056C83.1328 142.531 83.2096 143.006 83.3787 143.452C83.5478 143.897 83.8056 144.304 84.1367 144.647C84.4678 144.991 84.8653 145.264 85.3052 145.451C85.7452 145.638 86.2186 145.734 86.6969 145.734C87.1752 145.734 87.6486 145.638 88.0886 145.451C88.5286 145.264 88.926 144.991 89.2571 144.647C89.5882 144.304 89.846 143.897 90.0151 143.452C90.1842 143.006 90.261 142.531 90.241 142.056C90.2411 141.522 90.1255 140.994 89.9021 140.508C90.3391 139.772 90.5679 138.932 90.5643 138.076V138.076Z" fill="#F86D70"/>
<path opacity="0.1" d="M70.72 130.512C71.009 129.443 72.5845 128.934 74.3402 129.325C74.5444 128.041 75.1968 126.871 76.1821 126.021C77.1674 125.17 78.4224 124.694 79.7254 124.677C79.8466 124.677 79.9678 124.677 80.0859 124.677C79.5823 124.524 79.0586 124.446 78.5321 124.448C77.2291 124.465 75.9742 124.941 74.9889 125.792C74.0035 126.642 73.3512 127.812 73.1469 129.096C71.4067 128.705 69.8157 129.213 69.5267 130.282C69.216 131.401 70.459 132.709 72.2986 133.204C72.6408 133.299 72.9916 133.359 73.3458 133.384C71.5994 132.876 70.4248 131.606 70.72 130.512Z" fill="black"/>
<path opacity="0.1" d="M84.3261 142.284C84.3261 142.147 84.3261 142.014 84.3479 141.881C83.7964 141.409 83.364 140.814 83.0857 140.145C82.0798 139.89 81.1648 139.362 80.4428 138.62C79.7209 137.878 79.2205 136.95 78.9976 135.941C78.2445 135.836 77.5218 135.575 76.8761 135.175C76.2304 134.775 75.6759 134.245 75.2483 133.619C74.9001 133.647 74.55 133.637 74.2037 133.591C74.6335 134.168 75.1742 134.654 75.7944 135.021C76.4146 135.387 77.1019 135.628 77.8162 135.727C78.0373 136.737 78.5371 137.665 79.2594 138.407C79.9817 139.15 80.8977 139.676 81.9043 139.928C82.1829 140.598 82.6151 141.194 83.1665 141.668C83.1665 141.798 83.1448 141.931 83.1448 142.067C83.1289 143.016 83.4907 143.933 84.1512 144.617C84.8117 145.301 85.7172 145.698 86.6702 145.72C85.9747 145.453 85.3776 144.98 84.9588 144.366C84.5399 143.752 84.3192 143.026 84.3261 142.284Z" fill="black"/>
<path d="M78.3138 136.668C78.5976 136.452 78.5949 135.969 78.3079 135.589C78.0208 135.21 77.5581 135.077 77.2743 135.294C76.9905 135.51 76.9932 135.993 77.2803 136.373C77.5673 136.752 78.0301 136.885 78.3138 136.668Z" fill="#FBBEBE"/>
</svg>
